<svg xmlns="http://www.w3.org/2000/svg" width="174.06" height="35" viewBox="0 0 174.06 35"><rect class="svg__rect" x="0" y="0" width="57.6" height="35" fill="#C13B3A"/><rect class="svg__rect" x="55.6" y="0" width="118.46" height="35" fill="#C27474"/><path class="svg__text" d="M15.00 22L13.46 22L16.68 13.47L18.01 13.47L21.24 22L19.69 22L18.99 20.01L15.69 20.01L15.00 22ZM17.34 15.28L16.10 18.82L18.58 18.82L17.34 15.28ZM26.67 22L25.19 22L25.19 13.47L26.67 13.47L30.49 19.54L30.49 13.47L31.96 13.47L31.96 22L30.48 22L26.67 15.95L26.67 22ZM39.15 22L36.70 22L36.70 13.47L39.22 13.47Q40.35 13.47 41.23 13.97Q42.10 14.48 42.58 15.40Q43.06 16.33 43.06 17.52L43.06 17.52L43.06 17.95Q43.06 19.16 42.58 20.08Q42.10 21.00 41.20 21.50Q40.31 22 39.15 22L39.15 22ZM38.18 14.66L38.18 20.82L39.15 20.82Q40.31 20.82 40.94 20.09Q41.56 19.36 41.57 17.99L41.57 17.99L41.57 17.52Q41.57 16.13 40.97 15.40Q40.37 14.66 39.22 14.66L39.22 14.66L38.18 14.66Z" fill="#FFFFFF"/><path class="svg__text" d="M72.17 22L69.79 22L69.79 13.60L73.63 13.60Q74.77 13.60 75.61 13.98Q76.45 14.35 76.91 15.06Q77.36 15.76 77.36 16.71L77.36 16.71Q77.36 17.62 76.94 18.30Q76.51 18.98 75.72 19.36L75.72 19.36L77.53 22L74.99 22L73.46 19.77L72.17 19.77L72.17 22ZM72.17 15.47L72.17 17.93L73.49 17.93Q74.22 17.93 74.59 17.61Q74.96 17.29 74.96 16.71L74.96 16.71Q74.96 16.12 74.59 15.79Q74.22 15.47 73.49 15.47L73.49 15.47L72.17 15.47ZM88.90 22L82.15 22L82.15 13.60L88.74 13.60L88.74 15.44L84.51 15.44L84.51 16.85L88.24 16.85L88.24 18.63L84.51 18.63L84.51 20.17L88.90 20.17L88.90 22ZM93.27 17.80L93.27 17.80Q93.27 16.54 93.87 15.54Q94.47 14.55 95.52 13.99Q96.57 13.43 97.89 13.43L97.89 13.43Q99.04 13.43 99.97 13.84Q100.89 14.25 101.50 15.02L101.50 15.02L99.99 16.39Q99.18 15.40 98.01 15.40L98.01 15.40Q97.33 15.40 96.79 15.70Q96.26 16 95.96 16.54Q95.67 17.09 95.67 17.80L95.67 17.80Q95.67 18.51 95.96 19.05Q96.26 19.60 96.79 19.90Q97.33 20.20 98.01 20.20L98.01 20.20Q99.18 20.20 99.99 19.22L99.99 19.22L101.50 20.58Q100.90 21.35 99.97 21.76Q99.04 22.17 97.89 22.17L97.89 22.17Q96.57 22.17 95.52 21.61Q94.47 21.05 93.87 20.05Q93.27 19.06 93.27 17.80ZM108.42 22L106.04 22L106.04 13.60L108.42 13.60L108.42 16.76L111.66 16.76L111.66 13.60L114.03 13.60L114.03 22L111.66 22L111.66 18.72L108.42 18.72L108.42 22ZM120.61 22L118.19 22L121.90 13.60L124.24 13.60L127.95 22L125.49 22L124.82 20.37L121.27 20.37L120.61 22ZM123.05 15.93L121.97 18.61L124.13 18.61L123.05 15.93ZM134.49 22L132.11 22L132.11 13.60L135.95 13.60Q137.09 13.60 137.93 13.98Q138.77 14.35 139.23 15.06Q139.68 15.76 139.68 16.71L139.68 16.71Q139.68 17.62 139.26 18.30Q138.83 18.98 138.04 19.36L138.04 19.36L139.85 22L137.31 22L135.78 19.77L134.49 19.77L134.49 22ZM134.49 15.47L134.49 17.93L135.81 17.93Q136.54 17.93 136.91 17.61Q137.28 17.29 137.28 16.71L137.28 16.71Q137.28 16.12 136.91 15.79Q136.54 15.47 135.81 15.47L135.81 15.47L134.49 15.47ZM146.26 15.48L143.68 15.48L143.68 13.60L151.20 13.60L151.20 15.48L148.64 15.48L148.64 22L146.26 22L146.26 15.48ZM154.99 21.24L154.99 21.24L155.77 19.49Q156.33 19.86 157.07 20.09Q157.82 20.32 158.54 20.32L158.54 20.32Q159.91 20.32 159.91 19.64L159.91 19.64Q159.91 19.28 159.52 19.11Q159.13 18.93 158.26 18.74L158.26 18.74Q157.32 18.53 156.68 18.30Q156.04 18.06 155.59 17.55Q155.14 17.03 155.14 16.16L155.14 16.16Q155.14 15.39 155.55 14.77Q155.97 14.15 156.81 13.79Q157.64 13.43 158.85 13.43L158.85 13.43Q159.68 13.43 160.48 13.62Q161.29 13.80 161.90 14.17L161.90 14.17L161.17 15.93Q159.97 15.28 158.84 15.28L158.84 15.28Q158.13 15.28 157.81 15.49Q157.49 15.70 157.49 16.04L157.49 16.04Q157.49 16.37 157.87 16.54Q158.25 16.71 159.10 16.89L159.10 16.89Q160.06 17.10 160.69 17.33Q161.32 17.56 161.79 18.07Q162.25 18.58 162.25 19.46L162.25 19.46Q162.25 20.21 161.83 20.83Q161.41 21.44 160.57 21.80Q159.73 22.17 158.53 22.17L158.53 22.17Q157.51 22.17 156.55 21.92Q155.59 21.67 154.99 21.24Z" fill="#FFFFFF" x="68.6"/></svg>