<svg xmlns="http://www.w3.org/2000/svg" width="130.99" height="35" viewBox="0 0 130.99 35"><rect class="svg__rect" x="0" y="0" width="64.89" height="35" fill="#E46C17"/><rect class="svg__rect" x="62.89" y="0" width="68.10000000000001" height="35" fill="#DCCD2C"/><path class="svg__text" d="M14.08 19.16L14.08 19.16L14.08 13.47L15.56 13.47L15.56 19.18Q15.56 20.03 15.99 20.48Q16.43 20.93 17.27 20.93L17.27 20.93Q18.98 20.93 18.98 19.13L18.98 19.13L18.98 13.47L20.46 13.47L20.46 19.17Q20.46 20.53 19.59 21.32Q18.72 22.12 17.27 22.12L17.27 22.12Q15.81 22.12 14.94 21.33Q14.08 20.55 14.08 19.16ZM24.59 19.42L24.59 19.42L26.08 19.42Q26.08 20.15 26.56 20.55Q27.04 20.95 27.93 20.95L27.93 20.95Q28.71 20.95 29.10 20.63Q29.49 20.32 29.49 19.80L29.49 19.80Q29.49 19.24 29.09 18.94Q28.70 18.63 27.66 18.32Q26.63 18.01 26.02 17.63L26.02 17.63Q24.86 16.90 24.86 15.72L24.86 15.72Q24.86 14.69 25.70 14.02Q26.54 13.35 27.88 13.35L27.88 13.35Q28.77 13.35 29.47 13.68Q30.17 14.01 30.56 14.61Q30.96 15.22 30.96 15.96L30.96 15.96L29.49 15.96Q29.49 15.29 29.07 14.91Q28.65 14.54 27.87 14.54L27.87 14.54Q27.14 14.54 26.74 14.85Q26.34 15.16 26.34 15.71L26.34 15.71Q26.34 16.18 26.77 16.50Q27.21 16.81 28.20 17.10Q29.20 17.40 29.80 17.78Q30.41 18.16 30.69 18.65Q30.97 19.13 30.97 19.79L30.97 19.79Q30.97 20.86 30.15 21.49Q29.33 22.12 27.93 22.12L27.93 22.12Q27.01 22.12 26.23 21.77Q25.46 21.43 25.02 20.83Q24.59 20.22 24.59 19.42ZM40.84 22L35.26 22L35.26 13.47L40.80 13.47L40.80 14.66L36.74 14.66L36.74 17.02L40.24 17.02L40.24 18.19L36.74 18.19L36.74 20.82L40.84 20.82L40.84 22ZM44.60 19.42L44.60 19.42L46.08 19.42Q46.08 20.15 46.56 20.55Q47.04 20.95 47.94 20.95L47.94 20.95Q48.71 20.95 49.10 20.63Q49.49 20.32 49.49 19.80L49.49 19.80Q49.49 19.24 49.10 18.94Q48.70 18.63 47.67 18.32Q46.64 18.01 46.03 17.63L46.03 17.63Q44.86 16.90 44.86 15.72L44.86 15.72Q44.86 14.69 45.70 14.02Q46.54 13.35 47.89 13.35L47.89 13.35Q48.78 13.35 49.47 13.68Q50.17 14.01 50.57 14.61Q50.97 15.22 50.97 15.96L50.97 15.96L49.49 15.96Q49.49 15.29 49.07 14.91Q48.65 14.54 47.87 14.54L47.87 14.54Q47.15 14.54 46.75 14.85Q46.34 15.16 46.34 15.71L46.34 15.71Q46.34 16.18 46.78 16.50Q47.21 16.81 48.21 17.10Q49.20 17.40 49.81 17.78Q50.41 18.16 50.69 18.65Q50.97 19.13 50.97 19.79L50.97 19.79Q50.97 20.86 50.16 21.49Q49.34 22.12 47.94 22.12L47.94 22.12Q47.01 22.12 46.24 21.77Q45.46 21.43 45.03 20.83Q44.60 20.22 44.60 19.42Z" fill="#FFFFFF"/><path class="svg__text" d="M76.49 21.24L76.49 21.24L77.27 19.49Q77.83 19.86 78.58 20.09Q79.32 20.32 80.04 20.32L80.04 20.32Q81.41 20.32 81.41 19.64L81.41 19.64Q81.41 19.28 81.02 19.11Q80.63 18.93 79.77 18.74L79.77 18.74Q78.82 18.53 78.18 18.30Q77.55 18.06 77.09 17.55Q76.64 17.03 76.64 16.16L76.64 16.16Q76.64 15.39 77.06 14.77Q77.48 14.15 78.31 13.79Q79.15 13.43 80.35 13.43L80.35 13.43Q81.18 13.43 81.99 13.62Q82.79 13.80 83.41 14.17L83.41 14.17L82.67 15.93Q81.47 15.28 80.34 15.28L80.34 15.28Q79.63 15.28 79.31 15.49Q78.99 15.70 78.99 16.04L78.99 16.04Q78.99 16.37 79.37 16.54Q79.76 16.71 80.61 16.89L80.61 16.89Q81.57 17.10 82.20 17.33Q82.83 17.56 83.29 18.07Q83.75 18.58 83.75 19.46L83.75 19.46Q83.75 20.21 83.33 20.83Q82.91 21.44 82.07 21.80Q81.23 22.17 80.03 22.17L80.03 22.17Q79.01 22.17 78.05 21.92Q77.09 21.67 76.49 21.24ZM87.90 17.80L87.90 17.80Q87.90 16.54 88.50 15.54Q89.10 14.55 90.15 13.99Q91.20 13.43 92.52 13.43L92.52 13.43Q93.67 13.43 94.59 13.84Q95.52 14.25 96.13 15.02L96.13 15.02L94.62 16.39Q93.81 15.40 92.64 15.40L92.64 15.40Q91.95 15.40 91.42 15.70Q90.89 16 90.59 16.54Q90.30 17.09 90.30 17.80L90.30 17.80Q90.30 18.51 90.59 19.05Q90.89 19.60 91.42 19.90Q91.95 20.20 92.64 20.20L92.64 20.20Q93.81 20.20 94.62 19.22L94.62 19.22L96.13 20.58Q95.52 21.35 94.60 21.76Q93.67 22.17 92.52 22.17L92.52 22.17Q91.20 22.17 90.15 21.61Q89.10 21.05 88.50 20.05Q87.90 19.06 87.90 17.80ZM100.08 21.24L100.08 21.24L100.86 19.49Q101.42 19.86 102.17 20.09Q102.91 20.32 103.63 20.32L103.63 20.32Q105.00 20.32 105.00 19.64L105.00 19.64Q105.00 19.28 104.61 19.11Q104.22 18.93 103.36 18.74L103.36 18.74Q102.41 18.53 101.77 18.30Q101.14 18.06 100.68 17.55Q100.23 17.03 100.23 16.16L100.23 16.16Q100.23 15.39 100.65 14.77Q101.07 14.15 101.90 13.79Q102.74 13.43 103.94 13.43L103.94 13.43Q104.77 13.43 105.57 13.62Q106.38 13.80 107.00 14.17L107.00 14.17L106.26 15.93Q105.06 15.28 103.93 15.28L103.93 15.28Q103.22 15.28 102.90 15.49Q102.58 15.70 102.58 16.04L102.58 16.04Q102.58 16.37 102.96 16.54Q103.35 16.71 104.20 16.89L104.20 16.89Q105.16 17.10 105.79 17.33Q106.42 17.56 106.88 18.07Q107.34 18.58 107.34 19.46L107.34 19.46Q107.34 20.21 106.92 20.83Q106.50 21.44 105.66 21.80Q104.82 22.17 103.62 22.17L103.62 22.17Q102.60 22.17 101.64 21.92Q100.68 21.67 100.08 21.24ZM111.33 21.24L111.33 21.24L112.11 19.49Q112.67 19.86 113.42 20.09Q114.16 20.32 114.88 20.32L114.88 20.32Q116.25 20.32 116.25 19.64L116.25 19.64Q116.25 19.28 115.86 19.11Q115.47 18.93 114.61 18.74L114.61 18.74Q113.66 18.53 113.02 18.30Q112.39 18.06 111.93 17.55Q111.48 17.03 111.48 16.16L111.48 16.16Q111.48 15.39 111.90 14.77Q112.32 14.15 113.15 13.79Q113.99 13.43 115.19 13.43L115.19 13.43Q116.02 13.43 116.82 13.62Q117.63 13.80 118.25 14.17L118.25 14.17L117.51 15.93Q116.31 15.28 115.18 15.28L115.18 15.28Q114.47 15.28 114.15 15.49Q113.83 15.70 113.83 16.04L113.83 16.04Q113.83 16.37 114.21 16.54Q114.60 16.71 115.45 16.89L115.45 16.89Q116.41 17.10 117.04 17.33Q117.67 17.56 118.13 18.07Q118.59 18.58 118.59 19.46L118.59 19.46Q118.59 20.21 118.17 20.83Q117.75 21.44 116.91 21.80Q116.07 22.17 114.87 22.17L114.87 22.17Q113.85 22.17 112.89 21.92Q111.93 21.67 111.33 21.24Z" fill="#FFFFFF" x="75.89"/></svg>